name D:\school\WTK\thesis\model\3dpredictsim\Results\debug_batch\Pog_s1_tmt_bCst_d00_k2000_ig24_pas.mot
datacolumns 128
datarows 4
range 0.55059330 0.58362890
endheader
time	pelvis_tilt	pelvis_list	pelvis_rotation	pelvis_tx	pelvis_ty	pelvis_tz	hip_flexion_l	hip_adduction_l	hip_rotation_l	hip_flexion_r	hip_adduction_r	hip_rotation_r	knee_angle_l	knee_angle_r	ankle_angle_l	ankle_angle_r	subtalar_angle_l	subtalar_angle_r	tmt_angle_l	tmt_angle_r	mtp_angle_l	mtp_angle_r	lumbar_extension	lumbar_bending	lumbar_rotation	arm_flex_l	arm_add_l	arm_rot_l	arm_flex_r	arm_add_r	arm_rot_r	elbow_flex_l	elbow_flex_r	pro_sup_l	pro_sup_r	glut_med1_l/activation	glut_med2_l/activation	glut_med3_l/activation	glut_min1_l/activation	glut_min2_l/activation	glut_min3_l/activation	semimem_l/activation	semiten_l/activation	bifemlh_l/activation	bifemsh_l/activation	sar_l/activation	add_long_l/activation	add_brev_l/activation	add_mag1_l/activation	add_mag2_l/activation	add_mag3_l/activation	tfl_l/activation	pect_l/activation	grac_l/activation	glut_max1_l/activation	glut_max2_l/activation	glut_max3_l/activation	iliacus_l/activation	psoas_l/activation	quad_fem_l/activation	gem_l/activation	peri_l/activation	rect_fem_l/activation	vas_med_l/activation	vas_int_l/activation	vas_lat_l/activation	med_gas_l/activation	lat_gas_l/activation	soleus_l/activation	tib_post_l/activation	flex_dig_l/activation	flex_hal_l/activation	tib_ant_l/activation	per_brev_l/activation	per_long_l/activation	per_tert_l/activation	ext_dig_l/activation	ext_hal_l/activation	ercspn_l/activation	intobl_l/activation	extobl_l/activation	glut_med1_r/activation	glut_med2_r/activation	glut_med3_r/activation	glut_min1_r/activation	glut_min2_r/activation	glut_min3_r/activation	semimem_r/activation	semiten_r/activation	bifemlh_r/activation	bifemsh_r/activation	sar_r/activation	add_long_r/activation	add_brev_r/activation	add_mag1_r/activation	add_mag2_r/activation	add_mag3_r/activation	tfl_r/activation	pect_r/activation	grac_r/activation	glut_max1_r/activation	glut_max2_r/activation	glut_max3_r/activation	iliacus_r/activation	psoas_r/activation	quad_fem_r/activation	gem_r/activation	peri_r/activation	rect_fem_r/activation	vas_med_r/activation	vas_int_r/activation	vas_lat_r/activation	med_gas_r/activation	lat_gas_r/activation	soleus_r/activation	tib_post_r/activation	flex_dig_r/activation	flex_hal_r/activation	tib_ant_r/activation	per_brev_r/activation	per_long_r/activation	per_tert_r/activation	ext_dig_r/activation	ext_hal_r/activation	ercspn_r/activation	intobl_r/activation	extobl_r/activation	
          0.55059330	         -2.92748641	          2.47692229	         -5.89444517	          0.68824163	          0.85552091	          0.00332676	         31.89558542	          3.18565820	         -3.01207746	        -18.73596713	         -2.03956218	          7.09671252	        -14.51542709	         -6.45340230	          6.51111429	          0.94339950	         -3.32177026	          9.92946316	          0.01635475	          0.90022695	         -0.12314230	         22.28832612	         -2.17969108	         -0.87421244	          2.02851944	         -9.05666542	        -13.54930584	          7.31801674	          8.35499500	        -13.45770390	         17.91357975	         13.42754532	         37.42268314	         86.51662706	         86.51662706	          0.05000006	          0.05000003	          0.05000018	          0.05000004	          0.05000004	          0.05000014	          0.05917655	          0.05917652	          0.32520088	          0.05000007	          0.05000015	          0.10762160	          0.15406213	          0.21301096	          0.17084979	          0.12886593	          0.05917643	          0.05411057	          0.05917787	          0.05000012	          0.07003747	          0.12165874	          0.05016253	          0.05592087	          0.18093948	          0.05000038	          0.05000022	          0.05001364	          0.12214762	          0.12372723	          0.10616925	          0.05000018	          0.05000016	          0.05917654	          0.05000001	          0.05000055	          0.05009940	          0.52712334	          0.37728460	          0.22504331	          0.33125965	          0.55844622	          0.30740589	          0.07214395	          0.10226213	          0.09974699	          0.25252430	          0.09810441	          0.07003730	          0.29986945	          0.19533007	          0.10033946	          0.05000029	          0.05000004	          0.05000003	          0.08042715	          0.11075880	          0.06270732	          0.05000009	          0.05000009	          0.05000022	          0.05000019	          0.32571230	          0.05000090	          0.05000011	          0.05000213	          0.05000100	          0.05000045	          0.44456191	          0.68640006	          0.05000007	          0.05000021	          0.05000005	          0.25149298	          0.09662933	          0.05003188	          0.05002396	          0.33127709	          0.45147580	          0.30802917	          0.29003215	          0.29636370	          0.39706492	          0.05000000	          0.06686261	          0.17133986	          0.05000004	          0.05000000	          0.05000003	          0.05000000	          0.05000000	          0.05000000	
          0.56160517	         -2.91950738	          2.56899902	         -6.18059525	          0.70495531	          0.85441150	          0.00311368	         31.31695170	          3.56519451	         -2.83810735	        -18.58169730	         -2.35883540	          6.91066930	        -14.45728749	         -8.47233070	          5.95637267	          0.11380135	         -3.83510327	         10.93506074	          0.02166986	          0.77589415	         -0.10761294	         23.37608444	         -1.96467810	         -1.09816796	          2.11744992	        -10.20711928	        -13.54020371	          7.17978092	          8.18497741	        -13.47182079	         18.12836705	         13.32098985	         38.64064517	         86.51662706	         86.51662706	          0.05947812	          0.05319812	          0.05000013	          0.05917518	          0.05001693	          0.05000021	          0.05000003	          0.05000007	          0.28514692	          0.05000007	          0.05000053	          0.09093268	          0.13017162	          0.24044355	          0.19160543	          0.12967721	          0.05000004	          0.05000041	          0.05000117	          0.05917657	          0.05917699	          0.14029986	          0.05000003	          0.05000008	          0.50978335	          0.11810459	          0.10796688	          0.07003722	          0.19561834	          0.20147901	          0.17313530	          0.05000000	          0.05000000	          0.05000000	          0.05000002	          0.05917662	          0.05000035	          0.59527871	          0.31877883	          0.21907637	          0.51528634	          0.59638994	          0.27324078	          0.06095653	          0.08640427	          0.08427915	          0.21336518	          0.08289129	          0.05917659	          0.25336849	          0.16504009	          0.08477975	          0.05000065	          0.05000008	          0.05000010	          0.06795526	          0.09358340	          0.14459141	          0.08422699	          0.05597913	          0.05000232	          0.05000047	          0.27520389	          0.10049493	          0.05001048	          0.05000039	          0.05000024	          0.05000028	          0.37562336	          0.62780166	          0.05000036	          0.05917738	          0.05917658	          0.21249378	          0.08604932	          0.19248918	          0.16264073	          0.27990569	          0.38146510	          0.26026285	          0.25302435	          0.25040654	          0.33549190	          0.05000000	          0.05649420	          0.16624262	          0.05000002	          0.05000000	          0.05000002	          0.05025899	          0.07003727	          0.05000001	
          0.57261704	         -2.90737250	          2.66029227	         -6.43936931	          0.72196012	          0.85333279	          0.00290788	         30.62009127	          3.88475609	         -2.59395804	        -18.33780562	         -2.66828598	          6.71652607	        -14.95939702	        -10.64040996	          5.32212415	         -0.89561778	         -4.38008729	         11.89279607	         -0.01614967	          0.64464785	         -0.15224225	         24.30169857	         -1.72824468	         -1.32651874	          2.19486817	        -11.37302140	        -13.53345210	          7.08076297	          7.92322684	        -13.48529932	         18.26693054	         13.26990329	         39.82832030	         86.51662706	         86.51662706	          0.28453068	          0.05000002	          0.34790601	          0.05000004	          0.05000003	          0.26884899	          0.07475860	          0.05000010	          0.24092898	          0.05000002	          0.05000009	          0.08289125	          0.21374949	          0.20315803	          0.18283397	          0.15988824	          0.05000013	          0.05918261	          0.12468932	          0.05000005	          0.05000039	          0.14093553	          0.05326259	          0.05000012	          0.43073086	          0.09979004	          0.18530387	          0.05917650	          0.16528370	          0.17023570	          0.14628714	          0.05917703	          0.05917674	          0.05917664	          0.05917654	          0.05000010	          0.05000028	          0.50296837	          0.39868672	          0.20998415	          0.43538056	          0.58054301	          0.23086913	          0.05440122	          0.09586800	          0.07120991	          0.29522398	          0.07003728	          0.05000010	          0.21407848	          0.13944721	          0.07163290	          0.05000045	          0.05000009	          0.05000009	          0.05741739	          0.07907141	          0.16589557	          0.14784427	          0.05917665	          0.05917653	          0.05917641	          0.23252809	          0.08492680	          0.05004064	          0.05001042	          0.05001662	          0.05917595	          0.31737517	          0.58848951	          0.05917649	          0.05000099	          0.05000004	          0.17954220	          0.12929486	          0.16263981	          0.13741998	          0.23650049	          0.32231101	          0.21990368	          0.21378768	          0.21157584	          0.28346693	          0.05000000	          0.05000050	          0.19638021	          0.05000001	          0.05000000	          0.05000002	          0.05992695	          0.05917654	          0.05000002	
          0.58362890	         -2.89307316	          2.74937232	         -6.66405271	          0.73907507	          0.85229391	          0.00268428	         29.80925900	          4.16724824	         -2.33293280	        -17.98654985	         -2.96366354	          6.51774852	        -15.52793903	        -12.96379589	          4.94168853	         -2.08165368	         -4.92797948	         12.78610203	         -0.01047219	          0.51780477	         -0.17296200	         24.99591678	         -1.48849138	         -1.55614413	          2.26305440	        -12.50560979	        -13.52830531	          7.03854788	          7.59667734	        -13.50311283	         18.34355553	         13.24021490	         40.97121235	         86.51662706	         86.51662706	          0.32947948	          0.30318010	          0.40256297	          0.20406725	          0.21399826	          0.22715846	          0.06316596	          0.10092783	          0.20356794	          0.07003813	          0.05000063	          0.07003725	          0.18060319	          0.17165420	          0.15448197	          0.17936856	          0.05000005	          0.05000520	          0.10535379	          0.23431714	          0.18197405	          0.16782517	          0.05000001	          0.05000001	          0.36393711	          0.08431560	          0.15656872	          0.05000000	          0.13965307	          0.16780420	          0.12360235	          0.05000041	          0.05000016	          0.05000008	          0.05000000	          0.05000113	          0.05000009	          0.61999611	          0.39620690	          0.20421383	          0.67440655	          0.65925638	          0.34611806	          0.07980822	          0.08289130	          0.06016734	          0.24944350	          0.05917655	          0.05000000	          0.31256201	          0.11782304	          0.06052474	          0.05000079	          0.05000003	          0.05000002	          0.05000004	          0.06680997	          0.14357762	          0.12491797	          0.05000012	          0.05000014	          0.05000009	          0.26316089	          0.07175736	          0.05000008	          0.05000016	          0.05000010	          0.05000006	          0.26815957	          0.53767865	          0.05000001	          0.05000006	          0.05000003	          0.15170046	          0.10924505	          0.13741917	          0.11611019	          0.19982618	          0.27232999	          0.18580305	          0.18063546	          0.17876663	          0.23950952	          0.05000002	          0.11752870	          0.17944313	          0.05000006	          0.10150667	          0.05000007	          0.08528235	          0.05000000	          0.05000000	
